<?xml version="1.0" encoding="UTF-8"?>
<svg id="Calque_2" xmlns="http://www.w3.org/2000/svg" viewBox="0 0 561.44 224.17">
  <defs>
    <style>
      .cls-1 {
        fill: #fff;
      }
    </style>
  </defs>
  <g id="Calque_1-2" data-name="Calque_1">
    <g>
      <path d="M547.27,112.8c-.71-.2-1.42-.35-2.13-.46-3.22-4.9-7.37-8.94-12.37-12.04-5.68-3.51-12.02-5.42-18.87-5.69-.25,0-.5-.01-.75-.01-6.39,0-12.66,1.45-18.62,4.32-2.86,1.37-5.6,3.02-8.2,4.93-3.42-2.94-8.68-6.03-16.3-7.07-1.92-.26-3.87-.39-5.79-.39-8.59,0-16.97,2.52-24.91,7.48-.92.57-1.81,1.17-2.69,1.81-2.07-2.03-4.37-3.82-6.88-5.38-5.68-3.51-12.02-5.42-18.87-5.69-.25,0-.5-.01-.75-.01-1.05,0-2.09.04-3.13.12.73-4.76.71-9.43-.04-13.96-1.26-7.54-4.65-14.26-9.83-19.44-4.19-4.18-11.79-9.17-24.21-9.17-6.45,0-12.86.89-19.06,2.65-6.39,1.81-12.67,4.75-18.66,8.71-5.83,3.85-11.43,8.9-16.67,14.99-4.95,5.76-9.68,12.72-14.05,20.7-.04.08-.19.35-.22.42-5.38-3.07-11.32-4.75-17.7-5-.25,0-.5-.01-.75-.01-6.39,0-12.66,1.45-18.62,4.32-3.72,1.79-7.24,4.04-10.51,6.72-4.3-3.81-9.33-6.44-14.72-7.65-2.43-.55-4.93-.82-7.41-.82-1.81,0-3.62.15-5.44.44-.87-.12-1.76-.18-2.66-.18h-22.94c-1.93,0-3.83.29-5.63.84-1.8-.55-3.7-.84-5.63-.84h-20.72c-1.39,0-2.75.15-4.07.43-1.27-.26-2.57-.43-3.88-.53.33-2.73.5-5.42.5-8.05,0-.43,0-.86-.02-1.29.42-.43.82-.87,1.21-1.33,3.33-3.99,5.01-5.99,8.34-9.97,4.34-5.19,5.66-12.26,3.47-18.66-2.19-6.4-7.57-11.19-14.18-12.62-2.78-.6-5.26-.98-7.61-1.15-1.36-2.01-2.93-4.03-4.79-6.21-3.79-4.43-9.2-6.75-14.68-6.75-3.71,0-7.45,1.06-10.73,3.26-1.84,1.23-3.48,2.41-4.99,3.62-3.32-8.77-8.84-16.63-16.46-23.4-.07-.06-.14-.13-.22-.19-6.61-5.71-14.29-9.84-22.87-12.3-5.27-1.5-10.73-2.26-16.23-2.26-3.53,0-7.13.31-10.72.94-9.06,1.57-18.02,5.33-26.64,11.2-8.5,5.79-16.17,14.01-22.83,24.47C-1.13,44.9-.42,51.96,1.13,56.44c.82,2.38,1.9,4.35,3.09,5.98-.48,1.02-.93,2.1-1.36,3.23-3.74,9.9-3.8,20.75-.15,31.4,2.46,7.17,6.84,17.31,16.41,22.6.82.45,1.67.84,2.54,1.17,2.59.98,5.25,1.47,7.9,1.47s5.41-.53,7.84-1.51c.57,2.62.79,5.24.6,7.49l-.21,2.51c-.5,5.8-1.01,11.8-.94,18.19.05,5.13.64,10.16,1.74,14.9,1.19,5.23,3.03,10.33,5.46,15.16.17.33.35.68.53,1.02,1.93,3.6,4.39,6.98,7.31,10.06.24.26.49.51.75.75,2.28,2.15,4.4,3.84,6.51,5.17,4.53,2.86,9.88,4.19,16.85,4.19,8.19,0,16.64-2.56,25.12-7.61,4.92-2.94,9.83-6.68,14.93-11.35.53.92,1.08,1.82,1.69,2.68,3.77,5.31,8.94,9.24,14.96,11.36,3.21,1.13,6.59,1.71,10.05,1.71,3.06,0,6.2-.45,9.33-1.35.18-.05.36-.11.54-.16,1.87-.59,3.72-1.33,5.53-2.21,1.12.59,2.28,1.1,3.48,1.53.79.3,1.58.56,2.39.79-3.19,5.84-3.15,12.94.15,18.76,3.43,6.06,9.85,9.8,16.81,9.8h22.94c10.18,0,18.61-7.9,19.28-18.05.02-.3.17-2.04,1.12-7.25.09,0,.27,0,.27,0,3.76,0,7.54-.64,11.24-1.9,5.07-1.73,9.93-4.63,14.45-8.62,1.32,1.09,2.7,2.1,4.15,3.02,5.88,3.73,12.51,5.62,19.71,5.62,6.39,0,12.65-1.45,18.62-4.32,5.31-2.55,10.2-6.05,14.55-10.4.1-.1.21-.21.31-.32,3.04,3.47,6.57,6.44,10.56,8.88,6.68,4.08,14.54,6.15,23.35,6.15,7.83,0,15.21-1.7,21.92-5.06,3.17-1.58,6.19-3.41,9.06-5.46,1.91,1.83,4,3.47,6.24,4.89,5.88,3.73,12.51,5.62,19.71,5.62,6.39,0,12.65-1.45,18.62-4.32,2.96-1.42,5.8-3.14,8.49-5.14.05.05.1.1.16.15,4.56,4.25,12.63,9.31,25.25,9.31,5.24,0,10.33-.96,15.15-2.86,3.91-1.55,7.66-3.6,11.13-6.09,1.42,1.21,2.93,2.32,4.52,3.33,5.88,3.73,12.51,5.62,19.71,5.62,6.39,0,12.65-1.45,18.62-4.32,5.31-2.55,10.2-6.05,14.55-10.4,4.11-4.11,7.69-8.95,10.66-14.39,1.09-2,2.06-4.08,2.92-6.21.66-.63,1.29-1.27,1.89-1.93,2.35-2.57,4.39-5.27,6.04-8.04,1.04-1.74,1.54-2.45,1.66-2.62,2.35-3.28,3.61-7.21,3.61-11.24v-6.44c0-8.69-5.8-16.31-14.18-18.62Z"/>
      <g>
        <path class="cls-1" d="M119.57,62.87c-4.56,0-8.58,1.47-12.06,4.41-3.62,2.81-5.43,5.37-5.43,7.65,0,1.47.86,2.2,2.61,2.2,2.41,0,4.35.95,5.83,2.82,1.61,1.74,2.41,4.36,2.41,7.84,0,8.58-1.88,17.69-5.63,27.34-1.88,5.09-4.19,9.68-6.94,13.76-2.75,4.09-5.52,7.88-8.34,11.36-1.35,1.74-3.36,3.65-6.03,5.72-2.69,2.08-5.26,3.69-7.74,4.82-2.48,1.14-4.53,1.44-6.14.91-1.61-.54-2.08-2.55-1.41-6.03.27-.94.97-3.28,2.11-7.04,1.14-3.75,2.44-8.21,3.91-13.37.48-1.69.96-3.38,1.43-5.07,3.5-12.5,7.74-24.86,11.85-37.18,2.45-8.09,4-15.98,4.64-23.67.65-7.7-.04-15.01-2.05-21.95-2.02-6.94-6.06-13.12-12.14-18.53-4.48-3.87-9.66-6.66-15.53-8.34-5.88-1.68-11.99-1.97-18.36-.87-6.36,1.1-12.71,3.81-19.07,8.13-6.35,4.33-12.14,10.6-17.39,18.84-.93,1.47-1.29,2.53-1.06,3.19.22.65.51,1.1.89,1.33.62.65,1.33.85,2.13.59.81-.26,1.48-.6,2.01-1.03,1.25-.75,3.07-1.38,5.47-1.93,2.4-.53,5.1-.74,8.12-.62,3.02.12,6.11.8,9.3,2.05,3.19,1.26,6.14,3.39,8.85,6.4,5.29,5.43,8.22,11.86,8.77,19.28.34,4.65.32,9.45-.08,14.39-3.57-13.04-10.21-21.98-19.93-26.82-5.63-2.93-10.54-3.51-14.73-1.73-4.1,1.5-7.18,4.98-9.25,10.45-2.17,5.75-2.16,11.84.05,18.29,2.21,6.44,4.7,10.43,7.49,11.97,1.26.48,2.08.22,2.45-.76.11-.28.19-1.13.25-2.55.13-.76.26-1.42.4-2.01.14-.59.29-1.09.45-1.51,1.7-4.49,4.97-5.49,9.8-3.02,5.68,2.78,10.11,9.27,13.31,19.46,1.74,5.55,2.61,11.72,2.12,17.52-.52,6.29-1.15,12.59-1.09,18.9.04,3.74.45,7.33,1.26,10.8.86,3.76,2.16,7.36,3.9,10.82.07.15.16.31.24.45,1.12,2.11,2.57,4.1,4.34,5.97,1.35,1.27,2.52,2.23,3.56,2.88,1.27.8,3.45,1.21,6.53,1.21,4.68,0,9.76-1.63,15.22-4.88,4.69-2.8,9.67-6.8,14.94-12,5.89-5.63,11.22-11.86,15.98-18.69,4.76-6.83,9.07-14.27,12.97-22.31,6.43-12.86,9.65-24.12,9.65-33.77,0-4.96-1.34-8.91-4.02-11.87-2.55-2.81-6.16-4.21-10.85-4.21ZM133.43,55.06c-1.8-6.28-3.39-9.48-7.92-14.77-5.79,3.87-8.19,6.53-11.61,12.1-.34-.25-.51-.37-.85-.61-3.75-2.57-9.8,3.34-7.98,7.37.88,1.96,3.09,2.43,5.01,1.44,3.67-1.88,5.61-2.37,9.4-2.51,2.87-.1,4.31.09,7.06.97,3.61,1.15,5.35,2.15,8.38,4.94,1.59,1.46,3.84,1.61,5.21-.04,3.34-4,5.02-6,8.36-9.99-6.51-1.41-9.69-.97-15.05,1.11Z"/>
        <path class="cls-1" d="M529.81,123.93c-.94,1.21-2.18,2.38-3.72,3.52-.95.7-1.97,1.35-3.04,1.95.04-2.02-.08-3.98-.38-5.87-.6-3.89-1.78-7.27-3.52-10.16-1.74-2.88-4.02-5.2-6.84-6.94-2.82-1.74-5.97-2.68-9.46-2.82-3.49,0-6.91.81-10.26,2.41-3.35,1.61-6.44,3.82-9.26,6.64-2.82,2.82-5.27,6.17-7.34,10.06-1.11,2.08-2.03,4.23-2.78,6.46-3.17,5.5-6.43,9.82-9.8,12.95-4.83,4.5-9.15,7.01-12.98,7.55-3.82.54-6.71-.71-8.65-3.72-1.95-3.02-2.25-7.27-.91-12.78.53-2.14,1.37-4.36,2.52-6.64,1.14-2.28,2.41-4.39,3.82-6.34,1.41-1.94,2.92-3.55,4.53-4.83,1.61-1.27,3.15-1.91,4.63-1.91,1.07,0,1.51.91,1.31,2.72-.2,1.81-.77,3.92-1.71,6.34-.94,2.42-2.08,4.86-3.42,7.34-1.34,2.48-2.68,4.4-4.02,5.73-.4.4-.5.84-.3,1.31.2.47.57.7,1.11.7,2.95,0,5.6-.77,7.95-2.31,2.35-1.54,4.29-3.42,5.83-5.63,1.54-2.21,2.68-4.66,3.42-7.34.74-2.68.91-5.2.5-7.54-.4-2.34-1.41-4.36-3.02-6.04-1.61-1.68-3.89-2.72-6.84-3.12-6.04-.8-12.01.64-17.91,4.33-5.21,3.26-9.53,8.12-12.96,14.56-.87,1-1.94,1.99-3.23,2.94-.95.7-1.97,1.35-3.04,1.95.04-2.02-.08-3.98-.38-5.87-.6-3.89-1.78-7.27-3.52-10.16-1.74-2.88-4.02-5.2-6.84-6.94-2.82-1.74-5.97-2.68-9.46-2.82-3.49,0-6.91.81-10.26,2.41-3.35,1.61-6.44,3.82-9.26,6.64-2.82,2.82-5.27,6.17-7.34,10.06-1.97,3.69-3.37,7.63-4.19,11.8-.25.09-.5.23-.74.47-5.5,5.63-11.1,9.36-16.8,11.17-5.7,1.81-10.56,1.68-14.59-.4-4.02-2.08-6.71-6.2-8.05-12.37-1.34-6.17-.47-14.42,2.62-24.75,1.07-3.62,2.85-7.58,5.33-11.87,2.48-4.29,5.23-8.25,8.25-11.87,3.02-3.62,6.07-6.67,9.15-9.15,3.08-2.48,5.7-3.72,7.85-3.72,1.61,0,2.48,1.44,2.62,4.33.13,2.89-.34,6.24-1.41,10.06-1.08,3.82-2.68,7.58-4.83,11.27-2.15,3.69-4.7,6.41-7.65,8.15-.94.4-1.21,1.08-.8,2.01.4.94,1.07,1.41,2.01,1.41,4.02,0,7.75-1.17,11.17-3.52,3.42-2.35,6.3-5.33,8.65-8.95,2.35-3.62,4.09-7.48,5.23-11.57,1.14-4.09,1.41-7.95.81-11.57-.6-3.62-2.08-6.6-4.43-8.95-2.35-2.35-5.87-3.52-10.56-3.52s-9.29.64-13.78,1.91c-4.5,1.28-8.92,3.35-13.28,6.24-4.36,2.89-8.59,6.71-12.68,11.47-4.09,4.76-8.02,10.56-11.77,17.4-2.28,4.29-4.12,8.99-5.53,14.08-.93,3.37-1.57,6.75-1.97,10.15-.32.45-.7.95-1.14,1.52-.94,1.21-2.18,2.38-3.72,3.52-.95.7-1.97,1.35-3.04,1.95.04-2.02-.08-3.98-.38-5.87-.6-3.89-1.78-7.27-3.52-10.16-1.74-2.88-4.02-5.2-6.84-6.94-2.82-1.74-5.97-2.68-9.46-2.82-3.49,0-6.91.81-10.26,2.41-3.35,1.61-6.44,3.82-9.26,6.64-2.82,2.82-5.27,6.17-7.34,10.06-2.08,3.89-3.52,8.05-4.33,12.47-.8,4.43-.91,8.55-.3,12.37.6,3.82,1.81,7.21,3.62,10.16,1.81,2.95,4.09,5.3,6.84,7.04,2.75,1.75,5.87,2.62,9.36,2.62s6.91-.8,10.26-2.41c3.35-1.61,6.44-3.82,9.26-6.64,2.82-2.82,5.26-6.14,7.34-9.96,1.44-2.65,2.57-5.46,3.4-8.41,1.54-1.05,2.92-2.24,4.14-3.57,1.47-1.61,2.72-3.25,3.72-4.93.43-.71.82-1.34,1.18-1.92-.05,4.48.31,8.82,1.13,12.99.94,4.76,2.55,8.99,4.83,12.68,2.28,3.69,5.23,6.64,8.85,8.85,3.62,2.21,8.05,3.32,13.28,3.32,4.83,0,9.26-1.01,13.28-3.02,4.02-2.01,7.68-4.53,10.97-7.54,3.29-3.02,6.2-6.3,8.75-9.86,1.37-1.91,2.62-3.77,3.75-5.59-.07,2.15.05,4.21.37,6.19.6,3.82,1.81,7.21,3.62,10.16,1.81,2.95,4.09,5.3,6.84,7.04,2.75,1.75,5.87,2.62,9.36,2.62s6.91-.8,10.26-2.41c3.35-1.61,6.44-3.82,9.26-6.64,2.82-2.82,5.26-6.14,7.34-9.96,1.44-2.65,2.57-5.46,3.4-8.41,1.25-.86,2.39-1.81,3.43-2.85-.16.95-.3,1.91-.4,2.9-.47,4.7-.13,9.05,1.01,13.08,1.14,4.02,3.19,7.41,6.14,10.16,2.95,2.75,6.97,4.12,12.07,4.12,2.82,0,5.5-.5,8.05-1.51,2.55-1.01,4.96-2.35,7.24-4.02,2.28-1.67,4.36-3.59,6.24-5.73,1.88-2.14,3.62-4.29,5.23-6.44,1.25-1.7,2.44-3.48,3.59-5.34.06,1.1.17,2.18.33,3.23.6,3.82,1.81,7.21,3.62,10.16,1.81,2.95,4.09,5.3,6.84,7.04,2.75,1.75,5.87,2.62,9.36,2.62s6.91-.8,10.26-2.41c3.35-1.61,6.44-3.82,9.26-6.64,2.82-2.82,5.26-6.14,7.34-9.96,1.44-2.65,2.57-5.46,3.4-8.41,1.54-1.05,2.92-2.24,4.14-3.57,1.47-1.61,2.72-3.25,3.72-4.93,1.01-1.68,1.84-2.98,2.52-3.92v-6.44c-.4.67-1.08,1.61-2.01,2.82ZM286.85,127.14c-2.47.02-4.42.75-5.83,2.22-1.54,1.61-2.31,3.35-2.31,5.23,0,1.61.3,2.92.91,3.92.27.46.58.87.91,1.24-2.04,2.21-4.05,3.37-6.04,3.49-2.41.13-4.12-1.21-5.13-4.02-1.01-2.82-.97-6.17.1-10.06.94-4.02,2.58-7.48,4.93-10.36,2.35-2.88,4.73-4.39,7.14-4.53,2.28-.13,3.92,1.21,4.93,4.02.89,2.48,1.01,5.43.39,8.85ZM411.19,127.14c-2.47.02-4.42.75-5.83,2.22-1.54,1.61-2.31,3.35-2.31,5.23,0,1.61.3,2.92.91,3.92.27.46.58.87.91,1.24-2.04,2.21-4.05,3.37-6.04,3.49-2.41.13-4.12-1.21-5.13-4.02-1.01-2.82-.97-6.17.1-10.06.94-4.02,2.58-7.48,4.93-10.36,2.35-2.88,4.73-4.39,7.14-4.53,2.28-.13,3.92,1.21,4.93,4.02.89,2.48,1.01,5.43.39,8.85ZM514.2,127.14c-2.47.02-4.42.75-5.83,2.22-1.54,1.61-2.31,3.35-2.31,5.23,0,1.61.3,2.92.91,3.92.27.46.58.87.91,1.24-2.04,2.21-4.05,3.37-6.04,3.49-2.41.13-4.12-1.21-5.13-4.02-1.01-2.82-.97-6.17.1-10.06.94-4.02,2.58-7.48,4.93-10.36,2.35-2.88,4.73-4.39,7.14-4.53,2.28-.13,3.92,1.21,4.93,4.02.89,2.48,1.01,5.43.39,8.85ZM234.65,110.85c-2.15-2.28-4.56-3.72-7.24-4.33-2.68-.6-5.43-.43-8.25.5-1.41.47-2.8,1.12-4.18,1.96.44-1.1.83-1.96,1.16-2.57h-22.94c.13,1.48-.17,4.43-.91,8.85-.37,2.23-.8,4.65-1.3,7.26v-.62c-1.89,4.02-3.83,7.65-5.85,10.87-1.61,2.68-3.39,5.1-5.33,7.24-1.95,2.15-3.72,3.15-5.33,3.02-1.21-.13-1.74-1.64-1.61-4.53.13-2.88.67-6.27,1.61-10.16.94-3.89,2.11-7.88,3.52-11.97,1.41-4.09,2.72-7.41,3.92-9.96h-20.72c-.24,1.68-.52,3.36-.82,5.03-.06-.1-.12-.21-.18-.3-1.48-2.08-3.35-3.52-5.63-4.33-2.28-.81-4.9-.81-7.85,0-2.82.8-5.63,2.38-8.45,4.73-2.82,2.35-5.43,5.17-7.85,8.45-2.41,3.29-4.49,6.91-6.24,10.87-1.74,3.96-2.95,8.02-3.62,12.17-.67,4.16-.77,7.92-.3,11.27.47,3.35,1.44,6.07,2.92,8.15,1.48,2.08,3.35,3.52,5.63,4.33s4.83.8,7.65,0c2.95-.94,5.83-2.58,8.65-4.93,2.24-1.86,4.34-4.04,6.32-6.49.3,2.55.93,4.82,1.92,6.79,1.07,2.15,2.62,3.56,4.63,4.23,2.01.8,4.06.91,6.14.3,2.08-.6,4.09-1.61,6.04-3.02,1.94-1.41,3.79-3.18,5.53-5.33,1.74-2.14,3.42-4.36,5.03-6.64,2.25-3.29,4.4-6.93,6.45-10.89-.66,2.85-1.37,5.77-2.13,8.78-1.68,6.64-3.35,12.95-5.03,18.91-1.68,5.97-3.35,11.3-5.03,16-1.68,4.69-3.12,8.05-4.33,10.06h22.94c.13-2.01.63-5.37,1.51-10.06.87-4.7,1.98-10.03,3.32-16,.64-2.87,1.34-5.83,2.08-8.86.92,1.86,2.02,3.52,3.35,4.94,2.14,2.28,4.56,3.72,7.24,4.33,2.68.6,5.4.43,8.15-.5,2.75-.94,5.46-2.62,8.15-5.03,2.68-2.42,5.1-5.5,7.24-9.26,2.14-3.75,3.75-7.68,4.83-11.77,1.07-4.09,1.61-8.11,1.61-12.07s-.54-7.61-1.61-10.97c-1.08-3.35-2.69-6.17-4.83-8.45ZM155.58,126.35c-.8,3.89-2.21,7.44-4.23,10.66-2.01,3.22-4.02,5.17-6.04,5.83-2.01.67-3.42-.1-4.23-2.31-.81-2.21-.81-5.26,0-9.15.94-3.89,2.41-7.44,4.43-10.66,2.01-3.22,4.02-5.16,6.04-5.83,1.88-.67,3.25.1,4.12,2.31.87,2.21.84,5.27-.1,9.15ZM222.58,126.35c-.94,3.89-2.41,7.48-4.43,10.76-2.01,3.29-4.02,5.27-6.04,5.94-2.01.67-3.42-.1-4.23-2.31s-.74-5.26.2-9.15c.81-3.89,2.21-7.44,4.23-10.66,2.01-3.22,4.02-5.16,6.04-5.83,2.01-.8,3.42-.1,4.23,2.11.8,2.21.8,5.27,0,9.15Z"/>
      </g>
    </g>
  </g>
</svg>